<svg width="536" height="300" viewBox="0 0 536 300" fill="none" xmlns="http://www.w3.org/2000/svg">
<path d="M246 267.899L250 277.399C246.4 281.399 232.167 284.065 225.5 284.899C220.333 280.232 207.7 267.399 198.5 253.399C189.3 239.399 187 215.232 187 204.899C186.833 150.065 186.6 37.4987 187 25.8987C187.5 11.3987 202 2.39872 208.5 0.39872C213.7 -1.20128 215.667 2.39872 216 4.39872C215 58.5654 213.6 174.099 216 202.899C218.4 231.699 237 258.232 246 267.899Z" fill="white"/>
<path d="M305.5 50.3987C298.3 43.1987 287.5 46.0653 283 48.3987C280 46.3987 269 65.3987 283 74.8987C297 84.3987 301 76.3987 305.5 74.8987C310 73.3987 314.5 59.3987 305.5 50.3987Z" fill="white"/>
<path d="M308 271.899V123.899C308 121.399 305 114.899 293.5 112.899C284.3 111.299 278.667 119.565 277 123.899V268.399C279.5 276.399 284.5 281.399 295 282.399C303.4 283.199 307.167 275.732 308 271.899Z" fill="white"/>
<path fill-rule="evenodd" clip-rule="evenodd" d="M0 288.899V3.39868C0.333333 2.56535 2.2 0.898682 7 0.898682C13 0.898682 28 14.8987 28 23.8987C28 31.0987 26.6667 104.565 26 140.399C36 129.232 65.9 109.699 105.5 120.899C155 134.899 162.5 191.399 160.5 205.899C160.406 206.583 160.31 207.314 160.21 208.088C158.55 220.844 155.37 245.291 128.5 267.399C93.5 296.196 31 276.899 26 261.899V288.899C24.5 292.732 19.7 300.099 12.5 298.899C3.5 297.399 0 295.899 0 288.899ZM81.2776 250.372C109.996 250.372 133.278 227.986 133.278 200.372C133.278 172.758 109.996 150.372 81.2776 150.372C52.5588 150.372 29.2776 172.758 29.2776 200.372C29.2776 227.986 52.5588 250.372 81.2776 250.372Z" fill="white"/>
<path d="M511.5 136.399L513.5 114.899C495.9 112.499 482.833 120.899 477.5 124.899L437.5 166.099L459 186.63L511.5 136.399Z" fill="white"/>
<path d="M499 283.399L428 216.899L364.5 282.399C358.5 283.065 346.5 282.799 346.5 276.399C346.5 268.399 344.5 259.899 350.5 254.399C355.3 249.999 408 197.399 408 197.399L346.5 138.399V114.899H364.5L536 276.899L534 283.399H499Z" fill="white"/>
</svg>
